<?xml version="1.0" standalone="no"?><!DOCTYPE svg PUBLIC "-//W3C//DTD SVG 1.1//EN" "http://www.w3.org/Graphics/SVG/1.1/DTD/svg11.dtd"><svg t="1613635046828" class="icon" viewBox="0 0 1024 1024" version="1.1" xmlns="http://www.w3.org/2000/svg" p-id="3764" xmlns:xlink="http://www.w3.org/1999/xlink" width="512" height="512"><defs><style type="text/css"></style></defs><path d="M945.23 671.992c0 27.614-22.385 50-50 50H228.769c-27.614 0-50-22.386-50-50V454.008c0-27.614 22.386-50 50-50H895.23c27.615 0 50 22.386 50 50v217.984z" fill="#33DEB4" opacity=".4" p-id="3765"></path><path d="M845.23 690.992H178.769c-38.598 0-70-31.402-70-70V403.008c0-38.598 31.402-70 70-70H845.23c38.598 0 70 31.402 70 70v217.984c0 38.598-31.402 70-70 70zM178.769 373.008c-16.542 0-30 13.458-30 30v217.984c0 16.542 13.458 30 30 30H845.23c16.542 0 30-13.458 30-30V403.008c0-16.542-13.458-30-30-30H178.769z" fill="#33DEB4" p-id="3766"></path><path d="M274.951 511m-60 0a60 60 0 1 0 120 0 60 60 0 1 0-120 0Z" fill="#33DEB4" p-id="3767"></path><path d="M622 239.695a19.943 19.943 0 0 1-14.143-5.858l-82.972-82.972c-3.441-3.442-8.018-5.337-12.886-5.337s-9.445 1.896-12.887 5.338l-82.971 82.971c-7.811 7.811-20.474 7.811-28.284 0s-7.811-20.474 0-28.284l82.971-82.972c10.998-10.997 25.619-17.053 41.171-17.053 15.553 0 30.174 6.056 41.171 17.053l82.972 82.972c7.81 7.811 7.81 20.474 0 28.284A19.934 19.934 0 0 1 622 239.695zM512 929.696c-15.552 0-30.174-6.057-41.171-17.054l-82.971-82.972c-7.811-7.811-7.811-20.475 0-28.285 7.812-7.809 20.475-7.809 28.284 0l82.971 82.972A18.107 18.107 0 0 0 512 889.696c4.868 0 9.444-1.896 12.886-5.338l82.972-82.973c7.811-7.811 20.475-7.811 28.285 0 7.81 7.811 7.81 20.475 0 28.285l-82.972 82.972c-10.997 10.998-25.618 17.054-41.171 17.054z" fill="#808080" p-id="3768"></path></svg>