<?xml version="1.0" standalone="no"?><!DOCTYPE svg PUBLIC "-//W3C//DTD SVG 1.1//EN" "http://www.w3.org/Graphics/SVG/1.1/DTD/svg11.dtd"><svg t="1613634983162" class="icon" viewBox="0 0 1024 1024" version="1.1" xmlns="http://www.w3.org/2000/svg" p-id="2093" xmlns:xlink="http://www.w3.org/1999/xlink" width="512" height="512"><defs><style type="text/css"></style></defs><path d="M566.144 184.867l324.277 324.277-35.354 35.354L530.79 220.222zM774.599 757.557a24.921 24.921 0 0 1-17.678-7.322c-9.763-9.764-9.763-25.592 0-35.355l98.147-98.146c9.765-9.762 25.593-9.762 35.355 0 9.764 9.764 9.763 25.593 0 35.355l-98.147 98.146a24.921 24.921 0 0 1-17.677 7.322zM238.94 751.743a24.921 24.921 0 0 1-17.678-7.322l-92.333-92.333c-9.763-9.763-9.763-25.593 0-35.355 9.764-9.764 25.592-9.764 35.355 0l92.333 92.333c9.763 9.763 9.763 25.593 0 35.355a24.917 24.917 0 0 1-17.677 7.322zM453.209 184.87l35.355 35.354-324.277 324.277-35.355-35.355z" fill="#808080" p-id="2094"></path><path d="M508.277 259.585c-48.022 0-87.091-39.069-87.091-87.091s39.069-87.091 87.091-87.091c48.021 0 87.09 39.069 87.09 87.091s-39.068 87.091-87.09 87.091z m0-134.181c-25.966 0-47.091 21.125-47.091 47.091s21.125 47.091 47.091 47.091 47.09-21.125 47.09-47.091-21.124-47.091-47.09-47.091zM120.222 651.312c-48.022 0-87.091-39.068-87.091-87.091 0-48.021 39.069-87.09 87.091-87.09s87.091 39.069 87.091 87.09c0 48.022-39.069 87.091-87.091 87.091z m0-134.182c-25.966 0-47.091 21.125-47.091 47.091s21.125 47.091 47.091 47.091 47.091-21.125 47.091-47.091-21.125-47.091-47.091-47.091zM901.402 651.313c-48.022 0-87.091-39.069-87.091-87.092 0-48.021 39.068-87.09 87.091-87.09s87.091 39.069 87.091 87.09c0 48.022-39.068 87.092-87.091 87.092z m0-134.183c-25.966 0-47.091 21.125-47.091 47.091 0 25.967 21.125 47.092 47.091 47.092s47.091-21.125 47.091-47.092c0-25.966-21.125-47.091-47.091-47.091z" fill="#808080" p-id="2095"></path><path d="M773.676 632.146l-49.931-6.127a197.682 197.682 0 0 0-15.675-38.998l30.996-39.664c7.491-9.58 5.508-24.666-4.025-34.2l-32.28-32.283c-9.536-9.535-24.625-11.513-34.204-4.025l-38.535 30.115a197.61 197.61 0 0 0-39.94-17.08l-5.952-48.516c-1.477-12.067-13.547-21.335-27.028-21.335h-45.653c-13.484 0-25.554 9.269-27.034 21.335l-5.813 47.397a197.474 197.474 0 0 0-41.176 16.752l-37.797-29.536c-9.581-7.486-24.667-5.511-34.202 4.024l-32.282 32.28c-9.533 9.535-11.513 24.626-4.026 34.205l29.315 37.508a197.521 197.521 0 0 0-17.036 41.063l-47.757 5.854c-12.069 1.481-21.339 13.549-21.339 27.031v45.656c-0.002 13.479 9.27 25.552 21.337 27.03l48.137 5.904a197.657 197.657 0 0 0 16.813 40.063l-30.337 38.821c-7.487 9.58-5.509 24.666 4.026 34.201l32.281 32.279c9.535 9.54 24.623 11.515 34.203 4.03l39.35-30.754a197.313 197.313 0 0 0 38.909 15.926l6.168 50.303c1.479 12.07 13.548 21.34 27.031 21.34h45.654c13.48 0 25.548-9.27 27.031-21.34l6.216-50.684a197.377 197.377 0 0 0 37.917-15.696l40.65 31.772c9.585 7.487 24.672 5.507 34.202-4.029l32.283-32.278c9.536-9.539 11.514-24.626 4.025-34.207l-31.542-40.36a197.593 197.593 0 0 0 15.959-37.8l51.062-6.262c12.071-1.485 21.342-13.55 21.337-27.035l0.003-45.65c0.001-13.484-9.27-25.55-21.341-27.03zM533.659 788.14c-58.958 0-106.751-47.794-106.751-106.75 0-58.957 47.794-106.752 106.751-106.752 58.956 0 106.753 47.795 106.753 106.752 0 58.956-47.797 106.75-106.753 106.75z" fill="#33DEB4" opacity=".4" p-id="2096"></path><path d="M748.361 594.173l-49.932-6.126a197.666 197.666 0 0 0-15.675-38.999l30.995-39.664c7.491-9.579 5.509-24.666-4.024-34.2l-32.281-32.283c-9.535-9.534-24.624-11.513-34.203-4.025l-38.535 30.114a197.623 197.623 0 0 0-39.939-17.079l-5.953-48.517c-1.478-12.067-13.547-21.335-27.028-21.335h-45.653c-13.483 0-25.554 9.268-27.035 21.335l-5.813 47.397a197.557 197.557 0 0 0-41.176 16.751l-37.797-29.535c-9.581-7.486-24.667-5.511-34.202 4.025l-32.282 32.28c-9.533 9.535-11.513 24.625-4.026 34.207l29.316 37.506a197.47 197.47 0 0 0-17.037 41.063l-47.757 5.854c-12.069 1.481-21.339 13.55-21.339 27.031v45.657c-0.001 13.48 9.27 25.552 21.338 27.029l48.137 5.904a197.687 197.687 0 0 0 16.812 40.063l-30.336 38.821c-7.487 9.581-5.509 24.667 4.026 34.201l32.28 32.279c9.535 9.541 24.624 11.515 34.204 4.03l39.35-30.754a197.338 197.338 0 0 0 38.909 15.926l6.168 50.303c1.479 12.07 13.547 21.34 27.03 21.34h45.654c13.48 0 25.547-9.27 27.031-21.34l6.216-50.684a197.464 197.464 0 0 0 37.917-15.695l40.65 31.771c9.585 7.487 24.672 5.507 34.201-4.027l32.283-32.279c9.537-9.54 11.514-24.626 4.026-34.208l-31.542-40.36a197.724 197.724 0 0 0 15.96-37.8l51.062-6.262c12.069-1.485 21.341-13.55 21.335-27.035l0.004-45.65c0.002-13.484-9.269-25.551-21.339-27.03zM508.343 750.166c-58.958 0-106.751-47.793-106.751-106.749 0-58.958 47.794-106.753 106.751-106.753 58.957 0 106.752 47.795 106.752 106.753 0.001 58.956-47.795 106.749-106.752 106.749z" fill="#33DEB4" p-id="2097"></path></svg>