<?xml version="1.0" standalone="no"?><!DOCTYPE svg PUBLIC "-//W3C//DTD SVG 1.1//EN" "http://www.w3.org/Graphics/SVG/1.1/DTD/svg11.dtd"><svg t="1613635444055" class="icon" viewBox="0 0 1024 1024" version="1.1" xmlns="http://www.w3.org/2000/svg" p-id="12275" xmlns:xlink="http://www.w3.org/1999/xlink" width="512" height="512"><defs><style type="text/css"></style></defs><path d="M608.929 910.946H184.957c-38.598 0-70-31.401-70-70V281.984c0-38.598 31.402-70 70-70h423.972c38.598 0 70 31.402 70 70v21.491c0 11.046-8.954 20-20 20s-20-8.954-20-20v-21.491c0-16.542-13.458-30-30-30H184.957c-16.542 0-30 13.458-30 30v558.962c0 16.542 13.458 30 30 30h423.972c16.542 0 30-13.458 30-30V716.969c0-11.046 8.954-20 20-20s20 8.954 20 20v123.978c0 38.598-31.403 69.999-70 69.999z" fill="#808080" p-id="12276"></path><path d="M828.929 810.946h-170v-40h170c16.542 0 30-13.458 30-30V181.984c0-16.542-13.458-30-30-30H404.957c-16.542 0-30 13.458-30 30v42.995h-40v-42.995c0-38.598 31.402-70 70-70h423.972c38.598 0 70 31.402 70 70v558.962c0 38.599-31.403 70-70 70z" fill="#808080" p-id="12277"></path><path d="M300.665 399.469v179.822l72.62-48.418 141.779 162.535 96.828-102.017 169.441 133.14-169.44-205.759-96.828 100.282-102.017-117.57 74.354-53.604-186.737-48.411z" fill="#33DEB4" opacity=".4" p-id="12278"></path><path d="M310.665 349.469v179.822l72.62-48.418 141.779 162.535 96.828-102.017 169.441 133.14-169.44-205.759-96.828 100.282-102.017-117.57 74.354-53.604-186.737-48.411z" fill="#33DEB4" p-id="12279"></path></svg>